<svg width="180" height="30" viewBox="0 0 1190 135" fill="none" xmlns="http://www.w3.org/2000/svg">
<path fill-rule="evenodd" clip-rule="evenodd" d="M1136.66 0.5C1152.09 0.5 1165.24 4.87804 1176.48 13.9915C1180.67 17.5952 1182.77 19.686 1188.48 26.1369L1169.05 40.5695C1163.34 32.7784 1159.34 29.1747 1154.01 26.3275C1148.85 23.4803 1142.58 21.9613 1136.29 21.9613C1123.15 21.9613 1113.61 28.4242 1113.61 37.5317C1113.61 44.9356 1117.99 48.1581 1131.9 51.3866L1150.38 55.7646C1163.72 58.9871 1172.29 62.5908 1178.19 67.5347C1185.82 73.9856 1189.81 83.105 1189.81 93.928C1189.81 118.231 1168.86 134.563 1138 134.563C1120.85 134.563 1105.8 130.191 1095.14 121.834C1089.81 117.855 1087.33 115.187 1081.61 107.604L1101.8 93.3562C1107.13 101.147 1112.28 105.698 1119.71 108.927C1125.62 111.583 1133.43 113.108 1140.47 113.108C1154.96 113.108 1164.28 106.27 1164.28 95.8222C1164.28 87.2746 1158.38 82.5392 1143.15 79.3048L1126.57 75.6951C1100.09 70.0007 1088.66 59.1777 1088.66 39.6165C1088.66 16.4635 1108.08 0.5 1136.65 0.5H1136.66ZM329.603 0.5C363.704 0.5 391.545 29.7465 391.545 67.5347C391.545 105.502 363.704 134.563 329.603 134.563C295.316 134.563 267.469 105.496 267.469 67.5347C267.469 29.7465 295.323 0.5 329.603 0.5ZM640.691 0.5C674.798 0.5 702.639 29.7465 702.639 67.5347C702.639 105.502 674.798 134.563 640.691 134.563C606.399 134.563 578.563 105.496 578.563 67.5347C578.563 29.7465 606.405 0.5 640.691 0.5ZM1012.34 4.30622L1054.82 130.763H1029.28L1021.48 105.883H975.571L968.144 130.763H943.375L985.287 4.31217L1012.34 4.30622ZM900.074 4.30622V130.763H876.641V4.30026L900.074 4.30622ZM754.62 4.30622L783.569 103.798L811.77 4.31217H835.58L799.011 130.757H768.343L730.031 4.31217H754.614L754.62 4.30622ZM456.021 4.30622L514.447 89.7466V4.31217H537.101V130.757H515.597L455.829 44.1792V130.757H433.007V4.31217H456.015L456.021 4.30622ZM181.112 4.30622C199.777 4.30622 211.212 8.47578 219.4 18.5423C225.114 25.571 228.547 35.441 228.547 44.7391C228.547 56.1399 223.976 66.0039 215.405 72.8539C211.781 75.6892 209.498 77.2081 203.203 80.0613L231.026 130.751H204.73L179.585 83.8556H156.158V130.757H133.157V4.30026L181.112 4.30622ZM45.4637 4.30622C75.1918 4.30622 93.0958 20.0612 93.0958 46.0733C93.0958 60.8813 86.429 73.6163 74.6108 81.3955C66.9976 86.5181 59.3724 88.4123 46.9912 88.4123H22.6061V130.757H0V4.30622H45.4637ZM329.603 22.5272C308.458 22.7119 292.813 40.5695 292.992 67.5347C292.992 94.488 308.644 112.53 329.603 112.53C350.568 112.53 366.202 94.482 366.202 67.5347C366.202 40.5695 350.568 22.5272 329.603 22.5272ZM640.691 22.5272C619.547 22.7119 603.889 40.5695 604.092 67.5347C604.092 94.488 619.738 112.53 640.691 112.53C661.644 112.53 677.302 94.482 677.302 67.5347C677.302 40.5695 661.644 22.5272 640.691 22.5272ZM998.423 27.4652L981.471 85.0052H1015.39L998.423 27.4652ZM43.3732 24.4214H22.6061V68.0946H41.4744C59.5641 68.0946 68.3333 60.6907 68.3333 45.1203C68.3333 31.0748 60.5225 24.4214 43.3732 24.4214ZM179.201 24.4214H156.158V63.7344H178.644C194.637 63.7344 203.79 56.3364 203.79 43.6014C203.79 31.4501 194.829 24.4214 179.201 24.4214Z" fill="#101820"/>
</svg>
