<?xml version="1.0" encoding="utf-8"?>
<!-- Generator: Adobe Illustrator 27.5.0, SVG Export Plug-In . SVG Version: 6.00 Build 0)  -->
<svg version="1.1" id="Layer_1" xmlns="http://www.w3.org/2000/svg" xmlns:xlink="http://www.w3.org/1999/xlink" x="0px" y="0px"
	 viewBox="0 0 4141.6 889.3" style="enable-background:new 0 0 4141.6 889.3;" xml:space="preserve">
<style type="text/css">
	.st0{fill:#1A213C;}
	.st1{fill-rule:evenodd;clip-rule:evenodd;fill:#F16C62;}
</style>
<g id="Current_-_Lock_Up_Option__x23_2">
	<g id="B-2_x5F_R2__x28_Lock_Up_Option__x23_2_x29__00000045601537713661961500000012358419030252006805_">
		<g>
			<path class="st0" d="M1074.2,161.5v518.3h101.2c0,0,10.3,1,21.5-4.8c9-4.6,12-9,12-9c6.2-7.9,8.2-9.6,14-5.5
				c18.2,12.8,48.6,26.6,89.8,26.6c91.6,0,184.4-69.4,184.4-202c0-132.6-92.8-202-184.4-202c-54.7,0-90.2,24.2-103.7,38.2V161.5
				H1074.2z M1285.7,403.5c39.1,0,78.7,28.1,78.7,81.7c0,53.6-39.6,81.7-78.7,81.7c-46.8,0-79.5-33.6-79.5-81.7
				S1238.9,403.5,1285.7,403.5z"/>
			<g>
				<rect x="1540.7" y="299.5" class="st0" width="135" height="380.3"/>
				<path class="st0" d="M1608.2,276.1c39.5,0,71.7-32.2,71.7-71.7s-32.2-71.7-71.7-71.7c-39.5,0-71.7,32.2-71.7,71.7
					S1568.6,276.1,1608.2,276.1z"/>
			</g>
			<path class="st0" d="M1997.5,283.8c-4-0.4-8.2-0.7-12.7-0.7c-40.3,0-85.2,16.9-110,38.7c-6.7,5.9-14.2-0.7-18.3-6.2
				c0,0-4.7-5.5-13.2-10.7c-9.1-5.6-19.1-5.4-19.1-5.4h-86.8v380.3h135V527.6c0-70.7,43.4-114.6,113.2-114.6c4.4,0,8.3,0.2,12,0.5
				V283.8z"/>
			<path class="st0" d="M2297.9,161.5v159.8c-13.4-14-49-38.2-103.7-38.2c-91.6,0-184.4,69.4-184.4,202c0,132.6,92.8,202,184.4,202
				c41.3,0,71.6-13.8,89.8-26.6c5.8-4.1,7.8-2.5,14,5.5c0,0,3.1,4.4,12,9c11.2,5.8,21.5,4.8,21.5,4.8h101.2V161.5H2297.9z
				 M2300.8,485.1c0,48.1-32.7,81.7-79.5,81.7c-39.1,0-78.7-28.1-78.7-81.7c0-53.6,39.6-81.7,78.7-81.7
				C2268.1,403.5,2300.8,437.1,2300.8,485.1z"/>
			<path class="st0" d="M2753.4,161.5v159.8c-13.4-14-49-38.2-103.7-38.2c-91.6,0-184.4,69.4-184.4,202c0,132.6,92.8,202,184.4,202
				c41.3,0,71.6-13.8,89.8-26.6c5.8-4.1,7.8-2.5,14,5.5c0,0,3.1,4.4,12,9c11.2,5.8,21.5,4.8,21.5,4.8h101.2V161.5H2753.4z
				 M2756.3,485.1c0,48.1-32.7,81.7-79.5,81.7c-39.1,0-78.7-28.1-78.7-81.7c0-53.6,39.6-81.7,78.7-81.7
				C2723.7,403.5,2756.3,437.1,2756.3,485.1z"/>
			<path class="st0" d="M3270.4,334.4c-37.5-32.6-89.1-51.3-141.6-51.3c-52.7,0-104.6,18.7-142.2,51.3
				c-42.9,37.2-65.6,89.3-65.6,150.7c0,61.4,22.7,113.5,65.6,150.7c37.6,32.6,89.5,51.3,142.2,51.3c52.4,0,104-18.7,141.6-51.3
				c42.9-37.2,65.5-89.3,65.5-150.7C3335.9,423.8,3313.2,371.7,3270.4,334.4z M3203.1,485.1c0,46.5-31.3,80.2-74.3,80.2
				c-43.5,0-75.1-33.7-75.1-80.2s31.6-80.2,75.1-80.2C3171.8,404.9,3203.1,438.7,3203.1,485.1z"/>
			<path class="st0" d="M3661.7,301.5c-9.3,3-14.4,8.1-14.4,8.1c-2.9,2.3-6.1,6-10.7,2.4c-17.2-13.4-47.7-28.9-89.8-28.9
				c-92.4,0-185.9,69.4-185.9,202c0,132.6,93.5,202,185.9,202c55.5,0,91-27.1,102.2-40.6v22.1c0,26.4-12.9,65.3-70.6,69.7
				c-57.7,4.4-69.2-30.3-69.2-30.3h-142.1c0,0,11.1,69.5,67.3,104.1c38.8,23.9,78.5,36.4,144.4,36.4c43.8,0,88.9-7.6,131.6-36.1
				c48.8-32.5,73.6-84.6,73.6-154.9V299.5h-106.8C3677.3,299.5,3669.9,298.9,3661.7,301.5z M3573.2,566.8
				c-52.2,0-79.5-41.1-79.5-81.7c0-40.6,27.3-81.7,79.5-81.7c46.4,0,78.7,33.6,78.7,81.7S3619.6,566.8,3573.2,566.8z"/>
			<path class="st0" d="M4034.8,445.3l-63.2-19.1c-16-4.3-34.5-16.6-34.5-27.7c0-18.2,20.3-23.3,36.6-23.3
				c19.4,0,45.6,6.9,51.4,43.6l0.8,3l109.1-0.4l-0.2-4.3c0-0.5-0.6-13.2-2.8-24.4c-13.1-66.6-81.1-109.6-156.4-109.6
				c-87,0-158.7,44.7-158.7,119.9c0,38.5,28,88,104.7,114.8l66.9,20.6c14.1,4.2,24.6,14.6,24.6,23.9c0,24.3-26.4,27.7-40,27.7
				c-30.5,0-47.8-19.2-55.1-37h-110.9c0.3,5.8,0.8,14.2,3,20.8c22.7,69.1,76,113.4,161.9,113.4c95,0,169.7-50.8,169.7-126.5
				C4141.6,490.7,4078.6,459.4,4034.8,445.3z"/>
		</g>
	</g>
	<g id="Current_-_Icon_00000054946846387031013330000013584561400262952331_">
		<path class="st1" d="M1013.4,123.2c-38.5,80.7-138,207.9-393.5,355.9c-17.2,11.1-17.1,19.5-10.4,33.9c2.7,5.8,9.6,19,17.7,34.2
			C724.2,731.3,753.4,811.6,739,853.8c-4.6,13.6-14,24.2-26.5,29.8c-8.5,3.9-16.5,5.7-24,5.7c-41,0-67.1-53.5-92.5-105.6
			c-20.3-41.5-43.2-88.6-70.8-113c-3.9-3.2-20.2-11-33.2-17.2c-66.2-31.7-189.5-90.7-227-221.3c-14.8-51.4-22.8-92-29.3-124.6
			c-15.4-77.9-18.1-85.4-60.2-94.1c-15.4-3.2-29.1-5.9-41.4-8.4c-43.1-8.7-71.6-14.4-101.9-24.3C11.2,174-2,153.8,0.2,131.7
			c2.2-22,19.1-39.1,41.1-41.7c36-4.2,84.8,0.9,146.8,9.9c1.5-0.2,3.4-1,11.2-5c8.1-4.2,19.3-9.9,36.3-16.6
			c77.1-30.5,136.9-3.6,182.8,82.1c11.2,18.8,17,21.5,17.2,21.6c4.6-0.3,21.9-10.7,34.5-18.3l10.6-6.3c3.8-2.3,8.7-5.3,14.5-8.9
			c70.7-43.5,258.2-159,446.8-147.9c28.2,1.7,53.6,17.3,68,41.6C1024.4,67.1,1025.7,97.3,1013.4,123.2z"/>
	</g>
</g>
</svg>
