<svg width="149" height="21" viewBox="0 0 149 21" fill="none" xmlns="http://www.w3.org/2000/svg">
<g clip-path="url(#clip0_183_594)">
<path d="M6.41816 12.1356C6.41816 14.2112 6.33309 16.2966 6.44818 18.3674C6.53826 19.9801 6.11792 20.6574 4.26142 20.6282C0.0430251 20.5599 0.0380212 20.6574 0.0380212 16.5207C0.0380212 11.8286 0.113082 7.1365 -0.00201101 2.44926C-0.0420433 0.81214 0.548432 0.495435 2.1197 0.349263C5.02204 0.0812818 7.00363 0.792651 8.16457 3.61864C8.9502 5.53349 10.2462 7.24857 11.8175 8.98801C11.8175 6.80518 11.9226 4.6126 11.7825 2.43465C11.6774 0.817013 12.2479 0.203092 13.8842 0.40286C14.5397 0.480818 15.2202 0.475945 15.8808 0.407732C17.452 0.246943 17.8624 0.948567 17.8474 2.38592C17.7823 7.80402 17.7873 13.2221 17.8424 18.6402C17.8574 20.0483 17.452 20.5015 15.8958 20.6574C13.0585 20.94 11.197 20.1896 10.0511 17.5196C9.23042 15.6047 7.97441 13.8653 6.91356 12.0479C6.74843 12.0722 6.58329 12.1015 6.41816 12.1356Z" fill="#F9C81B"/>
<path d="M70.6084 0.755887C68.9271 0.385586 67.1456 0.444055 65.4042 0.3125C65.4042 0.351479 65.3992 0.390458 65.3942 0.429437C64.2333 0.429437 63.0623 0.497651 61.9014 0.409948C60.5503 0.307628 60.205 0.892314 60.2151 2.11041C60.2601 7.76238 60.2451 13.4192 60.2301 19.0761C60.2301 19.9775 60.3402 20.6596 61.5611 20.5914C64.4585 20.4355 67.3708 20.835 70.2631 20.2211C75.1621 19.1784 78.1595 15.6557 78.2045 10.7784C78.2496 5.63802 75.4273 1.80832 70.6084 0.755887ZM71.7243 11.061C71.6092 13.0294 70.7786 14.6812 68.5918 15.2171C67.2157 15.5533 66.1148 15.4559 66.4 13.541C66.5552 12.513 66.4301 11.4508 66.4301 10.4032C66.4301 9.5944 66.4251 8.79046 66.4301 7.98651C66.4401 5.70623 67.2757 5.13617 69.3975 6.12526C71.5142 7.11436 71.8394 9.07793 71.7243 11.061Z" fill="white"/>
<path d="M99.1568 18.7524C97.3603 13.8118 95.5889 8.86145 94.0276 3.85264C93.237 1.29951 92.2362 -0.478917 89.0836 0.558903C85.9912 -0.410703 84.8452 1.18257 84.0546 3.81366C82.7335 8.21343 81.0822 12.5206 79.571 16.8717C78.2499 20.6624 78.2499 20.6575 82.3832 20.6624C83.9445 20.6673 85.5608 21.0035 85.816 18.6744C86.1163 15.9946 88.3781 17.5197 89.7492 17.2127C91.0152 16.9301 92.2712 17.0617 92.3813 18.7914C92.4764 20.3213 93.307 20.867 94.8583 20.6819C95.8391 20.5649 96.8599 20.5796 97.8507 20.677C99.6722 20.8622 99.6772 20.1849 99.1568 18.7524ZM90.2196 12.9932C89.569 13.2222 88.6683 13.2271 88.0428 12.9689C87.1321 12.5986 87.9327 11.8434 88.0378 11.3123C88.253 10.2257 88.6833 9.17329 89.2037 7.56053C89.7192 9.16354 90.1245 10.2209 90.3797 11.3171C90.5098 11.858 91.1253 12.6717 90.2196 12.9932Z" fill="white"/>
<path d="M40.3601 18.2326C38.6738 13.7744 37.1876 9.24794 35.5913 4.75559C33.6898 -0.584547 35.0158 0.4484 29.1711 0.22427C27.3196 0.151184 26.529 0.799212 25.9986 2.44608C24.5374 6.97253 22.9211 11.4551 21.3498 15.9523C19.5784 21.0294 19.7736 21.2389 25.4581 20.6055C26.2438 20.5178 26.6391 20.2644 26.8843 19.5677C27.2446 18.5396 26.9443 16.9902 28.9109 17.1656C30.232 17.2825 31.5681 17.1997 32.8891 17.2825C33.0943 17.2971 33.4246 17.721 33.4396 17.9695C33.6047 20.6298 35.2811 21.0537 37.1275 20.6639C37.8781 20.6639 38.2184 20.6152 38.5437 20.6688C40.8756 21.0586 41.1057 20.1865 40.3601 18.2326ZM31.6681 12.9412C30.9626 13.331 29.9668 13.3554 29.2912 12.9217C28.5656 12.4588 29.3062 11.767 29.4363 11.1969C29.6565 10.2078 29.9968 9.24306 30.287 8.26371C30.4572 8.26371 30.6223 8.25884 30.7924 8.25397C31.0827 9.24794 31.3879 10.237 31.6531 11.2359C31.8083 11.8059 32.4388 12.5173 31.6681 12.9412Z" fill="#FAC81B"/>
<path d="M49.4235 20.8306C47.9824 20.9037 46.6213 20.5675 45.2952 20.0559C42.1577 18.8475 42.2177 18.8768 43.6489 15.8461C44.2744 14.5208 44.8098 13.9703 46.4161 14.7255C47.6221 15.2907 49.6137 16.5819 50.3593 14.935C51.1349 13.2248 48.6829 13.3125 47.6221 12.7522C45.5604 11.6607 43.4437 10.735 42.6681 8.30854C41.4921 4.62014 43.8691 0.912254 47.9473 0.181395C49.949 -0.179162 51.9055 0.00598927 53.8371 0.663762C57.455 1.8916 57.3749 1.83314 55.8187 5.29253C55.1481 6.78348 54.4376 7.08557 53.1265 6.13546C53.0615 6.08673 52.9764 6.06237 52.9013 6.03801C51.6003 5.64334 49.7938 4.65912 49.1633 6.17444C48.5478 7.6459 50.6595 7.68975 51.6854 8.11365C54.8479 9.42432 57.47 11.1443 57.3699 14.9204C57.2648 18.6136 54.1423 20.8744 49.4235 20.8306Z" fill="#FAC81B"/>
<path d="M122.301 0.477602C124.798 0.477602 127.095 -0.004765 129.026 0.604284C131.183 1.29129 130.793 4.22934 132.284 5.72029C133.525 4.17575 133.25 1.41797 135.176 0.667625C137.138 -0.0973404 139.55 0.268089 141.982 0.643263C140.57 3.15254 139.435 5.58387 137.923 7.77157C135.737 10.9338 134.756 14.2908 135.266 18.0474C135.536 20.0159 134.856 20.927 132.709 20.5908C131.979 20.4788 131.208 20.5275 130.462 20.5811C129.331 20.6688 128.881 20.1133 129.076 19.134C130.212 13.4723 127.22 9.03839 124.543 4.49732C123.817 3.27923 123.151 2.01728 122.301 0.477602Z" fill="white"/>
<path d="M111.663 10.5466C111.663 7.79853 111.743 5.04563 111.633 2.30247C111.573 0.782289 112.144 0.358391 113.65 0.392498C118.919 0.51918 117.803 -0.0947409 117.893 4.45607C117.953 7.44772 117.978 10.4394 117.873 13.4261C117.823 14.8391 118.108 15.6138 119.745 15.3166C119.985 15.2728 120.245 15.3118 120.49 15.3118C123.643 15.3166 124.784 17.1438 123.408 19.9162C123.077 20.5837 122.547 20.5739 121.961 20.5739C119.049 20.5739 116.132 20.5252 113.219 20.5983C111.968 20.6324 111.638 20.1305 111.653 19.0294C111.688 16.2083 111.663 13.3774 111.663 10.5466Z" fill="white"/>
<path d="M101.83 10.421C101.83 7.59991 101.87 4.77879 101.81 1.96255C101.785 0.827283 102.175 0.461854 103.366 0.388768C107.975 0.120787 107.975 0.0769354 107.975 4.53517C107.975 9.20779 107.915 13.8853 108.01 18.553C108.04 20.1219 107.599 20.6287 105.928 20.6141C101.835 20.5702 101.835 20.653 101.835 16.7064C101.83 14.6113 101.83 12.5161 101.83 10.421Z" fill="white"/>
<path d="M146.471 16.1875C148.037 16.2801 149.028 17.1133 148.998 18.7455C148.968 20.3339 147.772 21.0063 146.331 21.0112C144.865 21.016 143.689 20.2462 143.684 18.7114C143.689 17.1425 144.664 16.2216 146.471 16.1875Z" fill="#F3C21A"/>
</g>
<defs>
<clipPath id="clip0_183_594">
<rect width="149" height="21" fill="white"/>
</clipPath>
</defs>
</svg>
